<?xml version="1.0" encoding="UTF-8"?>
<svg id="Layer_1" data-name="Layer 1" xmlns="http://www.w3.org/2000/svg" xmlns:xlink="http://www.w3.org/1999/xlink" viewBox="0 0 555.06 563.03">
  <defs>
    <style>
      .cls-1 {
        fill: url(#linear-gradient);
      }

      .cls-2 {
        fill: #fff;
      }

      .cls-3 {
        filter: url(#drop-shadow-1);
      }

      .cls-4 {
        fill: url(#linear-gradient-2);
      }
    </style>
    <linearGradient id="linear-gradient" x1="592.68" y1="295.73" x2="-15.51" y2="295.73" gradientUnits="userSpaceOnUse">
      <stop offset="0" stop-color="#67278d"/>
      <stop offset=".22" stop-color="#7f2c8e"/>
      <stop offset=".7" stop-color="#bc3b92"/>
      <stop offset="1" stop-color="#e74695"/>
    </linearGradient>
    <linearGradient id="linear-gradient-2" x1="278.02" y1="-38.09" x2="278.02" y2="345.56" gradientUnits="userSpaceOnUse">
      <stop offset="0" stop-color="#7ed4ef"/>
      <stop offset=".23" stop-color="#65bfe6"/>
      <stop offset=".71" stop-color="#288ad0"/>
      <stop offset="1" stop-color="#0169c2"/>
    </linearGradient>
    <filter id="drop-shadow-1" filterUnits="userSpaceOnUse">
      <feOffset dx="4" dy="2"/>
      <feGaussianBlur result="blur" stdDeviation="0"/>
      <feFlood flood-color="#000" flood-opacity=".75"/>
      <feComposite in2="blur" operator="in"/>
      <feComposite in="SourceGraphic"/>
    </filter>
  </defs>
  <circle class="cls-1" cx="267.29" cy="295.73" r="267.29"/>
  <path class="cls-4" d="M555.06,277.27c.08,35-6.66,69.99-19.68,102.56-13.02,32.58-32.37,62.7-56.73,88.32-48.45,51.52-118.23,83.69-190.88,86.11-36.22,1.28-73.06-4.47-107.5-17.47-34.37-13.08-66.44-32.99-93.37-58.66-26.92-25.66-48.7-56.93-63.46-91.38-7.33-17.24-13.03-35.2-16.78-53.59-3.71-18.39-5.59-37.15-5.68-55.9,.08-37.49,7.59-75.08,22.41-109.51,14.72-34.47,36.51-65.76,63.43-91.43,26.9-25.72,59.01-45.59,93.39-58.69C214.67,4.61,251.53-1.11,287.77,.18c72.68,2.44,142.47,34.65,190.9,86.19,24.36,25.63,43.7,55.75,56.71,88.34,13.02,32.57,19.76,67.57,19.68,102.56Zm0,0c-.08-17.5-1.85-34.98-5.31-52.12-3.46-17.14-8.82-33.87-15.65-49.92-13.76-32.08-34.1-61.21-59.23-85.07-25.13-23.89-55.06-42.33-87.06-54.43-32.08-12.01-66.32-17.24-100.04-15.96-67.61,2.48-132.16,32.51-177.07,80.42-22.56,23.83-40.46,51.79-52.51,81.99-12.03,30.2-18.28,62.59-18.23,95.09-.06,32.49,6.14,64.9,18.18,95.1,12.01,30.22,29.92,58.2,52.49,82.04,44.91,47.95,109.51,77.99,177.14,80.45,33.73,1.27,67.99-3.95,100.07-16,32-12.11,61.95-30.55,87.06-54.46,25.13-23.87,45.46-53.01,59.21-85.09,6.83-16.05,12.19-32.78,15.64-49.92,3.46-17.14,5.22-34.62,5.31-52.12Z"/>
  <g class="cls-3">
    <g>
      <path class="cls-2" d="M359.69,417.08c2.23-12.32,14.03-20.5,26.35-18.26,12.32,2.23,20.45,14.51,19.49,26.42-1.1,13.81-9.99,31.04-30.25,42.85-1.72,1-3.65-.94-2.7-2.69,2.42-4.47,5.46-11.68,7.29-21.72-13.42-1.28-22.52-13.69-20.18-26.6Z"/>
      <path class="cls-2" d="M410.24,417.08c2.23-12.32,14.03-20.5,26.35-18.26,12.32,2.23,20.45,14.51,19.49,26.42-1.1,13.81-9.99,31.04-30.25,42.85-1.72,1-3.65-.94-2.7-2.69,2.42-4.47,5.46-11.68,7.29-21.72-13.42-1.28-22.52-13.69-20.18-26.6Z"/>
      <path class="cls-2" d="M188.94,168.9c-2.23,12.32-14.03,20.5-26.35,18.26-12.32-2.23-20.45-14.51-19.49-26.42,1.1-13.81,9.99-31.04,30.25-42.85,1.72-1,3.65,.94,2.7,2.69-2.42,4.47-5.46,11.68-7.29,21.72,13.42,1.28,22.52,13.69,20.18,26.6Z"/>
      <path class="cls-2" d="M138.39,168.9c-2.23,12.32-14.03,20.5-26.35,18.26-12.32-2.23-20.45-14.51-19.49-26.42,1.1-13.81,9.99-31.04,30.25-42.85,1.72-1,3.65,.94,2.7,2.69-2.42,4.47-5.46,11.68-7.29,21.72,13.42,1.28,22.52,13.69,20.18,26.6Z"/>
    </g>
    <g>
      <path class="cls-2" d="M124.87,231.46c0-16.33,8.6-25.66,24.34-25.66s24.34,9.33,24.34,25.66v53.06c0,5.68-1.02,10.5-3.06,14.29,.73,1.89,1.89,2.19,4.52,2.19h1.46v14.29h-2.19c-7.14,0-11.66-2.62-13.85-7-3.21,1.17-7,1.89-11.22,1.89-15.74,0-24.34-9.33-24.34-25.66v-53.06Zm16.03,54.08c0,7.29,3.21,10.06,8.31,10.06s8.31-2.77,8.31-10.06v-55.1c0-7.29-3.21-10.06-8.31-10.06s-8.31,2.77-8.31,10.06v55.1Z"/>
      <path class="cls-2" d="M206.51,206.97v78.72c0,7.29,3.21,9.91,8.31,9.91s8.31-2.62,8.31-9.91v-78.72h15.16v77.7c0,16.33-8.16,25.66-23.91,25.66s-23.91-9.33-23.91-25.66v-77.7h16.03Z"/>
      <path class="cls-2" d="M255.19,231.46c0-16.33,8.6-25.66,24.34-25.66s24.34,9.33,24.34,25.66v53.06c0,16.33-8.6,25.66-24.34,25.66s-24.34-9.33-24.34-25.66v-53.06Zm16.03,54.08c0,7.29,3.21,10.06,8.31,10.06s8.31-2.77,8.31-10.06v-55.1c0-7.29-3.21-10.06-8.31-10.06s-8.31,2.77-8.31,10.06v55.1Z"/>
      <path class="cls-2" d="M316.85,206.97h49.56v14.58h-16.76v87.46h-16.03v-87.46h-16.76v-14.58Z"/>
      <path class="cls-2" d="M396.73,249.97h22.01v14.58h-22.01v29.88h27.7v14.58h-43.73v-102.04h43.73v14.58h-27.7v28.43Z"/>
      <path class="cls-2" d="M132.72,341.8v14.17h6.93c2.14,0,3.84,1.76,3.84,3.83s-1.7,3.83-3.84,3.83h-6.93v14.05c0,2.32-1.89,4.27-4.28,4.27s-4.22-1.94-4.22-4.27v-39.2c0-2.32,1.89-4.26,4.22-4.26h12.54c2.08,0,3.84,1.69,3.84,3.76s-1.76,3.83-3.84,3.83h-8.25Z"/>
      <path class="cls-2" d="M167.17,350.83c0-10.54,2.83-17.06,13.54-17.06s13.1,6.59,13.1,17.06v14.43c0,10.47-2.33,16.68-13.1,16.68s-13.54-6.27-13.54-16.68v-14.43Zm8.57,15.87c0,4.89,.76,7.59,4.91,7.59s4.66-2.63,4.66-7.59v-17.37c0-5.46-.76-7.9-4.66-7.9s-4.91,2.45-4.91,7.9v17.37Z"/>
      <path class="cls-2" d="M238.87,362.68l4.85,14.05c.06,.31,.13,.69,.13,1.13,0,2.2-1.76,4.08-4.03,4.08s-3.59-1.25-4.09-2.89l-4.54-14.24h-3.78v12.86c0,2.26-1.89,4.27-4.28,4.27s-4.22-2.01-4.22-4.27v-39.2c0-2.32,1.89-4.26,4.22-4.26h6.68c10.9,0,14.68,6.4,14.68,15.43,0,6.02-1.64,10.54-5.61,13.04Zm-11.47-20.88v15.55h1.76c5.92,0,6.74-2.82,6.74-7.65s-.94-7.9-6.55-7.9h-1.95Z"/>
      <path class="cls-2" d="M314.78,362.81v15.05c0,2.2-1.83,4.08-4.03,4.08s-4.03-1.88-4.03-4.08v-14.68l-9.58-24.33c-1.01-2.51,1.2-5.08,3.72-5.08s3.72,1.51,4.35,3.39l5.67,17.06,4.85-17.25c.44-1.82,2.02-3.2,4.03-3.2,2.39,0,4.6,2.19,3.72,4.83l-8.69,24.21Z"/>
      <path class="cls-2" d="M345.77,350.83c0-10.54,2.83-17.06,13.54-17.06s13.1,6.59,13.1,17.06v14.43c0,10.47-2.33,16.68-13.1,16.68s-13.54-6.27-13.54-16.68v-14.43Zm8.57,15.87c0,4.89,.76,7.59,4.91,7.59s4.66-2.63,4.66-7.59v-17.37c0-5.46-.76-7.9-4.66-7.9s-4.91,2.45-4.91,7.9v17.37Z"/>
      <path class="cls-2" d="M415.26,338.03c0-2.32,1.89-4.26,4.22-4.26s4.28,1.94,4.28,4.26v26.34c0,11.85-2.33,17.56-13.17,17.56s-13.23-5.83-13.23-17.56v-26.34c0-2.32,1.83-4.26,4.22-4.26s4.28,1.94,4.28,4.26v27.53c0,6.46,.94,8.97,4.66,8.97,3.91,0,4.72-2.45,4.72-8.97v-27.53Z"/>
    </g>
  </g>
</svg>